<svg xmlns="http://www.w3.org/2000/svg" width="500" height="500" viewBox="0 0 500 500" fill="none">
  <!-- White background circle -->
  <circle cx="250" cy="250" r="250" fill="white" />

  <!-- Group with scaled and centered paths -->
  <g transform="translate(100, 100) scale(7.3)">
    <path d="M11.8028 29.3065C9.40206 26.8817 8.08032 23.6586 8.08032 20.2297C8.08032 16.8008 9.40206 13.5765 11.8028 11.1529C13.53 9.40924 15.6651 8.22857 17.9921 7.70369V0.415039C8.37389 1.78889 0.975952 10.1349 0.975952 20.2297C0.975952 30.3245 8.37389 38.6706 17.9921 40.0444V32.7571C15.6651 32.2322 13.53 31.0515 11.8028 29.3078V29.3065Z" fill="#131414"/>
    <path d="M40.6041 20.231C40.6041 10.1362 33.2062 1.79016 23.5879 0.41631V7.70369C25.915 8.22857 28.0501 9.40924 29.7773 11.1529C32.178 13.5778 33.4997 16.8008 33.4997 20.2297C33.4997 23.6586 32.178 26.8829 29.7773 29.3065C28.0501 31.0502 25.915 32.2309 23.5879 32.7558V40.0432C33.2062 38.6693 40.6041 30.3233 40.6041 20.2285V20.231Z" fill="#131414"/>
  </g>
</svg>